<svg width="31" height="30" viewBox="0 0 31 30" fill="#ffffff" xmlns="http://www.w3.org/2000/svg">
    <path d="M0.0075418 15.6781C0.0037709 15.6882 0 15.6995 0 15.7121V24.5108C0 24.7358 0.120669 24.9445 0.316756 25.0563L8.79875 29.9045V21.1057L0.316756 16.2576C0.103052 16.1369 -0.00500823 15.9069 0.0075418 15.6781Z"></path>
    <path d="M6.38037 17.3021C6.49726 17.4881 6.69966 17.5963 6.91206 17.5963C6.96232 17.5963 7.01388 17.59 7.06414 17.5774L26.1562 12.8047C27.0361 12.5847 27.6507 11.7979 27.6507 10.8865C27.6507 10.1349 27.2322 9.4586 26.5597 9.12175L23.0829 7.38337L22.4884 8.87034C22.335 9.2512 22.0585 9.57674 21.7078 9.78667L15.4229 13.5576C15.3211 13.6179 15.2105 13.6468 15.0999 13.6468C14.8862 13.6468 14.6788 13.5387 14.5606 13.3414C14.3822 13.0435 14.4789 12.6576 14.7756 12.4791L21.0604 8.70819C21.1773 8.63778 21.2704 8.52842 21.3219 8.40151L22.4896 5.4816L22.8629 5.29429C23.0465 5.40364 23.2526 5.47529 23.4738 5.47529C23.5907 5.47529 23.7088 5.45897 23.8257 5.42503L28.6701 4.03987C29.55 3.78846 30.1646 2.97271 30.1646 2.05762C30.1672 0.925108 29.2421 0 28.1058 0H27.5276C27.06 0 26.6025 0.160911 26.2392 0.451271L22.7146 3.27067C22.4217 3.50446 22.2671 3.84261 22.2558 4.19454L21.7153 4.46481C21.5783 4.53392 21.4702 4.65082 21.4124 4.79411L20.8279 6.25469L19.0707 5.37607C17.7308 4.70609 16.01 5.06809 15.0534 6.21574L6.42939 16.5656C6.25593 16.7754 6.23583 17.0721 6.38037 17.3021Z"></path><path d="M0.940192 15.1678L5.18122 17.5913C4.94866 16.9552 5.0417 16.2702 5.46404 15.7636L6.33011 14.7241C6.50481 14.5141 6.52366 14.215 6.3766 13.9837C6.22953 13.7525 5.94925 13.6431 5.68528 13.7148L0.470125 15.1062C0.623436 15.066 0.791889 15.0823 0.940192 15.1678Z"></path>
    <path d="M10.0558 21.2012V30L29.726 23.8534C29.9887 23.773 30.1672 23.5291 30.1672 23.2539V14.88L10.0558 21.2012Z"></path>
    <path d="M28.596 13.1944C28.3597 13.0586 28.0618 13.0926 27.8594 13.2761C27.466 13.6369 26.9833 13.8971 26.463 14.0265L7.37211 18.7992C7.35579 18.803 7.33317 18.8055 7.31178 18.808L9.50014 20.0587L29.5714 13.7512L28.596 13.1944Z"></path>
</svg>