<svg xmlns="http://www.w3.org/2000/svg" width="21" height="21" viewBox="0 0 21 21" fill="none">
    <path d="M12.2423 7.79693C12.0054 7.55858 11.7427 7.34729 11.459 7.16695C10.7078 6.68591 9.83447 6.43029 8.94242 6.43029C7.7043 6.42798 6.51648 6.91992 5.64252 7.79693L1.40264 12.0401C0.530161 12.9143 0.0397837 14.0987 0.0390024 15.3337C0.0373619 17.911 2.12527 20.0016 4.70254 20.0032C5.93876 20.0075 7.12548 19.5179 7.99913 18.6433L11.499 15.1434C11.5626 15.0803 11.5981 14.9943 11.5976 14.9048C11.5966 14.7207 11.4465 14.5723 11.2624 14.5734H11.129C10.3978 14.576 9.67311 14.4355 8.99578 14.1601C8.87098 14.1087 8.72755 14.1377 8.63247 14.2334L6.11586 16.7533C5.3344 17.5348 4.0674 17.5348 3.28594 16.7533C2.50448 15.9719 2.50448 14.7049 3.28594 13.9234L7.5425 9.6702C8.32334 8.89034 9.58827 8.89034 10.3691 9.6702C10.8953 10.1655 11.7162 10.1655 12.2424 9.6702C12.4688 9.4436 12.606 9.14306 12.629 8.82354C12.6534 8.44172 12.5126 8.06778 12.2423 7.79693Z" fill="#ffffff"/>
    <path d="M18.6721 1.36711C16.8497 -0.455378 13.8948 -0.455378 12.0723 1.36711L8.57575 4.86033C8.47974 4.95681 8.45205 5.10193 8.50576 5.227C8.55884 5.35243 8.6829 5.43293 8.81907 5.43032H8.94238C9.67275 5.42899 10.3963 5.57051 11.0723 5.84698C11.1971 5.89835 11.3406 5.86937 11.4356 5.77367L13.9456 3.26706C14.727 2.48559 15.994 2.48559 16.7755 3.26706C17.5569 4.04852 17.5569 5.31551 16.7755 6.09698L13.6489 9.22021L13.6222 9.25021L12.5289 10.3369C11.7481 11.1167 10.4832 11.1167 9.70232 10.3369C9.17609 9.8416 8.35525 9.8416 7.82906 10.3369C7.60121 10.5652 7.46383 10.8683 7.44239 11.1902C7.41801 11.572 7.55883 11.9459 7.82906 12.2168C8.21487 12.6043 8.66626 12.9202 9.16234 13.1501C9.23234 13.1834 9.30234 13.2101 9.37233 13.2401C9.44233 13.2701 9.51565 13.2934 9.58565 13.3201C9.65565 13.3468 9.72896 13.3701 9.79896 13.3901L9.99564 13.4434C10.129 13.4767 10.2623 13.5034 10.3989 13.5267C10.5635 13.5512 10.7293 13.5668 10.8956 13.5734H11.1489L11.3489 13.5501C11.4222 13.5468 11.4989 13.5301 11.5856 13.5301H11.6989L11.9289 13.4968L12.0356 13.4768L12.2289 13.4368H12.2656C13.0843 13.2311 13.832 12.8072 14.4288 12.2101L18.672 7.96692C20.4946 6.14444 20.4946 3.1896 18.6721 1.36711Z" fill="#ffffff"/>
</svg>