<svg width="27" height="20" viewBox="0 0 27 20" fill="#fff" xmlns="http://www.w3.org/2000/svg" class="fill-base">
    <path d="M0.556667 1.62271C4.21656 4.72224 10.6385 10.1753 12.526 11.8755C12.7794 12.105 13.0512 12.2217 13.3333 12.2217C13.6149 12.2217 13.8862 12.1061 14.139 11.8777C16.0281 10.1758 22.4501 4.72224 26.1101 1.62271C26.3379 1.4301 26.3727 1.09156 26.1882 0.856094C25.7617 0.311979 25.1259 0 24.4444 0H2.22224C1.54083 0 0.904948 0.311979 0.478542 0.856146C0.294062 1.09156 0.328802 1.4301 0.556667 1.62271Z"></path>
    <path d="M26.3444 3.3024C26.1475 3.21073 25.9158 3.24271 25.752 3.38271C23.3551 5.41448 20.197 8.09896 17.8153 10.1476C17.6899 10.255 17.6194 10.4129 17.6221 10.5783C17.6248 10.7433 17.7014 10.899 17.8305 11.002C20.0435 12.7745 23.3784 15.2127 25.7867 16.9455C25.8828 17.0149 25.9967 17.0502 26.1111 17.0502C26.198 17.0502 26.2847 17.0302 26.3645 16.9889C26.5501 16.894 26.6667 16.703 26.6667 16.4946V3.80641C26.6667 3.58995 26.5408 3.39302 26.3444 3.3024Z"></path>
    <path d="M0.88 16.9455C3.28885 15.2127 6.62438 12.7745 8.83682 11.002C8.96594 10.899 9.04245 10.7432 9.04516 10.5783C9.04786 10.4129 8.97734 10.255 8.85203 10.1476C6.47026 8.09896 3.31161 5.41448 0.91474 3.38271C0.749792 3.24271 0.517604 3.21182 0.322292 3.3024C0.125885 3.39302 0 3.58995 0 3.80641V16.4947C0 16.703 0.116667 16.894 0.302187 16.989C0.381927 17.0302 0.46875 17.0503 0.555573 17.0503C0.670052 17.0503 0.783958 17.015 0.88 16.9455Z"></path><path d="M25.9858 18.457C23.6599 16.7931 19.3755 13.6909 16.818 11.6151C16.6097 11.4453 16.308 11.4507 16.103 11.6276C15.6011 12.0654 15.1812 12.4344 14.8833 12.7023C13.9686 13.5281 12.6991 13.5281 11.7822 12.7013C11.4854 12.4338 11.0655 12.0638 10.5636 11.6276C10.3602 11.4496 10.058 11.4442 9.84911 11.6151C7.30026 13.6838 3.01099 16.7897 0.681354 18.457C0.551667 18.5503 0.468125 18.6941 0.451875 18.853C0.436146 19.012 0.48875 19.1698 0.597812 19.287C1.01833 19.7401 1.61078 20 2.22224 20H24.4445C25.0559 20 25.6478 19.7401 26.0694 19.2871C26.1779 19.1704 26.231 19.0126 26.2153 18.8536C26.199 18.6947 26.1155 18.5504 25.9858 18.457Z"></path>
</svg>