<svg width="22" height="20" viewBox="0 0 22 20" fill="#fff" xmlns="http://www.w3.org/2000/svg" class="fill-base">
    <path d="M20.6884 8.88562L11.2477 0.283222C10.8333 -0.094421 10.2084 -0.0943798 9.79418 0.283181L0.353356 8.88566C0.0214135 9.18813 -0.088234 9.65418 0.0739358 10.0729C0.236147 10.4917 0.631091 10.7622 1.08016 10.7622H2.58802V19.3812C2.58802 19.7229 2.8651 20 3.20682 20H8.38154C8.72326 20 9.00034 19.7229 9.00034 19.3812V14.148H12.0416V19.3812C12.0416 19.7229 12.3187 20 12.6604 20H17.8349C18.1766 20 18.4537 19.723 18.4537 19.3812V10.7622H19.9618C20.4109 10.7622 20.8059 10.4916 20.9681 10.0729C21.13 9.65414 21.0204 9.18813 20.6884 8.88562Z"></path>
    <path d="M18.2921 1.23516H14.1363L18.9109 5.57651V1.85392C18.9109 1.51219 18.6338 1.23516 18.2921 1.23516Z"></path>
</svg>