<svg width="239px" height="50px" viewBox="0 0 239 50" version="1.1" xmlns="http://www.w3.org/2000/svg" xmlns:xlink="http://www.w3.org/1999/xlink"><path fill="#5e5f5c" d="M49.553922,47.3692332 C49.553922,48.5737338 48.5698094,49.5555869 47.361995,49.5555869 L2.63933099,49.5555869 C1.43019024,49.5555869 0.447404181,48.5737338 0.447404181,47.3692332 L0.447404181,2.63076679 C0.447404181,1.42582534 1.43019024,0.444413093 2.63933099,0.444413093 L47.361995,0.444413093 C48.5698094,0.444413093 49.553922,1.42582534 49.553922,2.63076679 L49.553922,47.3692332 Z M2.63933099,0 C1.18261481,0 0,1.17760652 0,2.63076679 L0,47.3692332 C0,48.8219526 1.18261481,50 2.63933099,50 L47.361995,50 C48.8187112,50 50,48.8219526 50,47.3692332 L50,2.63076679 C50,1.17760652 48.8187112,0 47.361995,0 L2.63933099,0 Z M27.819272,20.3942403 C27.819272,20.2487479 27.7007895,20.1310313 27.5553389,20.1310313 L23.7289721,20.1310313 C23.5830794,20.1310313 23.465039,20.2487479 23.465039,20.3942403 L23.465039,22.4994709 C23.465039,22.6449633 23.5830794,22.7626799 23.7289721,22.7626799 L27.5553389,22.7626799 C27.7007895,22.7626799 27.819272,22.6449633 27.819272,22.4994709 L27.819272,20.3942403 Z M22.8055164,20.3942403 C22.8055164,20.2487479 22.6870339,20.1310313 22.5411412,20.1310313 L16.792528,20.1310313 C16.6470774,20.1310313 16.529037,20.2487479 16.529037,20.3942403 L16.529037,22.4994709 C16.529037,22.6449633 16.6470774,22.7626799 16.792528,22.7626799 L22.5411412,22.7626799 C22.6870339,22.7626799 22.8055164,22.6449633 22.8055164,22.4994709 L22.8055164,20.3942403 Z M23.7825103,23.6838671 C23.7825103,23.5383747 23.6640278,23.4206582 23.5181351,23.4206582 L22.0671662,23.4206582 C21.9212735,23.4206582 21.802791,23.5383747 21.802791,23.6838671 L21.802791,25.7890978 C21.802791,25.9341493 21.9212735,26.0523067 22.0671662,26.0523067 L23.5181351,26.0523067 C23.6640278,26.0523067 23.7825103,25.9341493 23.7825103,25.7890978 L23.7825103,23.6838671 Z M18.1850514,26.9733176 C18.1850514,26.8278252 18.0665689,26.7101086 17.9211183,26.7101086 L17.129319,26.7101086 C16.9834263,26.7101086 16.865828,26.8278252 16.865828,26.9733176 L16.865828,29.0785483 C16.865828,29.2240406 16.9834263,29.3417572 17.129319,29.3417572 L17.9211183,29.3417572 C18.0665689,29.3417572 18.1850514,29.2240406 18.1850514,29.0785483 L18.1850514,26.9733176 Z M16.205951,26.9733176 C16.205951,26.8278252 16.0874685,26.7101086 15.9415758,26.7101086 L13.8309952,26.7101086 C13.6851025,26.7101086 13.56662,26.8278252 13.56662,26.9733176 L13.56662,29.0785483 C13.56662,29.2240406 13.6851025,29.3417572 13.8309952,29.3417572 L15.9415758,29.3417572 C16.0874685,29.3417572 16.205951,29.2240406 16.205951,29.0785483 L16.205951,26.9733176 Z M14.850298,39.078945 C14.850298,38.9334527 14.7318155,38.8157361 14.5859228,38.8157361 L12.4753422,38.8157361 C12.3294495,38.8157361 12.210967,38.9334527 12.210967,39.078945 L12.210967,41.1841757 C12.210967,41.3292272 12.3294495,41.4473847 12.4753422,41.4473847 L14.5859228,41.4473847 C14.7318155,41.4473847 14.850298,41.3292272 14.850298,41.1841757 L14.850298,39.078945 Z M10.8916994,42.3683514 C10.8916994,42.2228591 10.773659,42.1051425 10.6277663,42.1051425 L9.835967,42.1051425 C9.69051643,42.1051425 9.572476,42.2228591 9.572476,42.3683514 L9.572476,44.4735821 C9.572476,44.6190745 9.69051643,44.7367911 9.835967,44.7367911 L10.6277663,44.7367911 C10.773659,44.7367911 10.8916994,44.6190745 10.8916994,44.4735821 L10.8916994,42.3683514 Z M16.1696981,42.3683514 C16.1696981,42.2228591 16.0512156,42.1051425 15.905765,42.1051425 L11.8154651,42.1051425 C11.6695724,42.1051425 11.551532,42.2228591 11.551532,42.3683514 L11.551532,44.4735821 C11.551532,44.6190745 11.6695724,44.7367911 11.8154651,44.7367911 L15.905765,44.7367911 C16.0512156,44.7367911 16.1696981,44.6190745 16.1696981,44.4735821 L16.1696981,42.3683514 Z M20.1278548,45.6579783 C20.1278548,45.5124859 20.0098144,45.3947693 19.8639217,45.3947693 L7.003262,45.3947693 C6.85781143,45.3947693 6.739771,45.5124859 6.739771,45.6579783 L6.739771,47.7632089 C6.739771,47.9087013 6.85781143,48.0264179 7.003262,48.0264179 L19.8639217,48.0264179 C20.0098144,48.0264179 20.1278548,47.9087013 20.1278548,47.7632089 L20.1278548,45.6579783 Z"></path><path fill="#5fa4c3" d="M28.1036263,2 C29.8910893,2.21331347 31.6218502,2.74441156 33.2117562,3.56619297 C40.3715084,7.26814337 43.086004,15.9069019 39.2748198,22.8618827 C39.2653695,22.8793674 39.253219,22.896415 39.2392685,22.911277 C39.1411651,23.0196822 38.9715091,23.0301731 38.8603552,22.9348814 C38.3234863,22.4759077 37.7528662,22.0549633 37.1534451,21.675108 C37.0395911,21.6029836 36.9995397,21.4591718 37.0598418,21.3407129 C40.0060956,15.5742553 37.5823102,8.57949669 31.6457011,5.71768664 C30.6072645,5.21723536 29.5005589,4.86564157 28.3600347,4.67365033 L27.9308202,4.60915597 L16.2682094,4.60915597 C16.141305,4.60915597 16.0348992,4.52340953 16.0070874,4.4080716 L16,4.34819667 L16,2.26095931 C16,2.13731743 16.0882766,2.03390785 16.2067344,2.00688556 L16.2682094,2 L28.1036263,2 Z M27.8843336,5.26151054 C29.0566249,5.42105852 30.196515,5.75851344 31.2612525,6.26076176 C36.7964475,8.87271959 39.1568357,15.2857342 36.6307227,20.6974242 L36.4953869,20.9776429 L36.4953869,20.9776429 C36.4242844,21.104407 36.2609286,21.1511786 36.1308741,21.082114 C35.6664577,20.8368909 35.1891315,20.6155181 34.7009839,20.4194708 L34.1841055,20.2214291 L34.1841055,20.2214291 C34.0509008,20.1576099 33.9964489,20.0011218 34.0621512,19.8717349 C36.1731755,15.7138707 34.4145136,10.6804595 30.1335128,8.62994008 C29.4708323,8.3122179 28.7697995,8.07895759 28.0474178,7.93511398 L27.6845266,7.87066651 L21.8370206,7.87066651 C21.7097304,7.87066651 21.6032695,7.78492006 21.5754499,7.66958214 L21.5683611,7.6097072 L21.5683611,5.52246984 C21.5683611,5.39882796 21.6566377,5.29541839 21.7753789,5.2683961 L21.8370206,5.26151054 L27.8843336,5.26151054 Z M27.6294446,8.52284622 C28.4552237,8.6574785 29.2535518,8.91712645 29.996078,9.29304774 C33.8995155,11.2701314 35.4142688,15.9464173 33.3788471,19.7379769 C33.3203451,19.8476934 33.1898405,19.9023332 33.0674362,19.8686751 C32.3505609,19.6706607 31.6197352,19.5255376 30.8808091,19.43418 C30.8389577,19.4289346 30.7993563,19.4145097 30.764705,19.3917796 C30.6414007,19.3113499 30.6089996,19.1491792 30.6922525,19.029409 C32.32446,16.6790267 31.6863375,13.4885041 29.2666023,11.9030779 C28.7774993,11.5827331 28.2374803,11.344602 27.6692166,11.1977687 L27.3828359,11.1320022 L25.5148201,11.1320022 C25.3875299,11.1320022 25.281069,11.0462557 25.2532494,10.9309178 L25.2461607,10.8710429 L25.2461607,8.78380553 C25.2461607,8.66016365 25.3344373,8.55675407 25.4531785,8.52973178 L25.5148201,8.52284622 L27.6294446,8.52284622 Z"></path><path fill="#134a70" d="M29.8569743,20 C36.8845895,20.4845822 42.4780065,26.0437799 42.9655716,33.0284016 C43.4979398,40.6559873 37.7940821,47.282286 30.1713081,47.9748899 L29.8569743,48 L20.5812168,48 C20.4556521,48 20.3500426,47.9131897 20.322431,47.7964209 L20.3153937,47.7358031 L20.3153937,45.6226707 C20.3153937,45.4974949 20.4030655,45.3928024 20.5203661,45.3654449 L20.5812168,45.3584739 L29.7599065,45.3584739 C36.0719811,44.8747768 40.7940149,39.3978916 40.3082309,33.1248755 C39.8812766,27.621469 35.5515031,23.2295049 30.0554387,22.6679307 L29.7599065,22.6415261 L28.3274895,22.6415261 C28.2019248,22.6415261 28.0966424,22.5547159 28.0691242,22.437947 L28.0621116,22.3773293 L28.0621116,20.2641969 C28.0621116,20.139021 28.1494563,20.0343285 28.2666635,20.006971 L28.3274895,20 L29.8569743,20 Z M29.7343483,23.301797 C35.0232043,23.719113 39.2238329,27.8936005 39.6432724,33.1505429 C40.1076405,38.9636092 35.8209049,44.0621369 30.020805,44.6718526 L29.7343483,44.698203 L16.5945825,44.698203 C16.4690178,44.698203 16.3637354,44.6113927 16.3362172,44.4946239 L16.3292046,44.4340061 L16.3292046,42.3208737 C16.3292046,42.1956979 16.4165492,42.0910054 16.5337565,42.0636478 L16.5945825,42.0566768 L29.6212511,42.0566768 C34.0983892,41.6490967 37.3955754,37.7122536 36.9854865,33.2625057 C36.6354489,29.463342 33.6669603,26.435896 29.8806544,25.9710268 L29.6212511,25.9433232 L24.2620433,25.9433232 C24.1360969,25.9433232 24.03076,25.8565129 24.0032341,25.7397441 L23.9962202,25.6791263 L23.9962202,23.5659939 C23.9962202,23.4411974 24.0835648,23.3362339 24.2010524,23.3087912 L24.2620433,23.301797 L29.7343483,23.301797 Z M29.5904387,26.6037711 C33.1570102,26.9423148 35.9808799,29.7484661 36.3210623,33.2932181 C36.7059314,37.2966105 33.8194129,40.8605361 29.8356924,41.3688588 L29.5904387,41.3961404 L15.2658231,41.3961404 C15.1398768,41.3961404 15.0345398,41.3093302 15.0070139,41.1925613 L15,41.1319435 L15,39.0188111 C15,38.8940146 15.0873446,38.7890512 15.2048322,38.7616085 L15.2658231,38.7546143 L29.4501803,38.7546143 C32.0919367,38.4417379 33.9780786,36.0590982 33.6632763,33.433061 C33.4088965,31.3107975 31.7735629,29.6231538 29.6694789,29.276353 L29.4501803,29.2452972 L18.6244559,29.2452972 C18.4985096,29.2452972 18.3931726,29.158487 18.3656467,29.0417181 L18.3586328,28.9811003 L18.3586328,26.8679679 C18.3586328,26.7427921 18.4459774,26.6380996 18.563465,26.6107421 L18.6244559,26.6037711 L29.5904387,26.6037711 Z"></path><path fill="#e8e8e8" d="M24.7378688,8.42860835 C24.8618582,8.42860835 24.9658805,8.51311373 24.9930708,8.62678227 L25,8.6857906 L25,10.7428178 C25,10.8643008 24.9136905,10.9664774 24.7979363,10.9931915 L24.7378688,11 L19.7884978,11 C19.6645083,11 19.5611301,10.9151781 19.5341239,10.8016904 L19.5272432,10.7428178 L19.5272432,8.6857906 C19.5272432,8.56393828 19.6129087,8.46202543 19.7284788,8.43539425 L19.7884978,8.42860835 L24.7378688,8.42860835 Z M18.6108798,8.42860835 C18.7348692,8.42860835 18.8388915,8.51311373 18.8660818,8.62678227 L18.873011,8.6857906 L18.873011,10.7428178 C18.873011,10.8643008 18.7867015,10.9664774 18.6709473,10.9931915 L18.6108798,11 L14.9739184,11 C14.8499289,11 14.7462287,10.9151781 14.7191304,10.8016904 L14.7122255,10.7428178 L14.7122255,8.6857906 C14.7122255,8.56393828 14.798213,8.46202543 14.9138751,8.43539425 L14.9739184,8.42860835 L18.6108798,8.42860835 Z M13.7963442,8.42860835 C13.9203336,8.42860835 14.0240339,8.51311373 14.0511322,8.62678227 L14.0580371,8.6857906 L14.0580371,10.7428178 C14.0580371,10.8643008 13.9720496,10.9664774 13.8563874,10.9931915 L13.7963442,11 L12.9446368,11 C12.8210231,11 12.7170545,10.9151781 12.6898719,10.8016904 L12.6829439,10.7428178 L12.6829439,8.6857906 C12.6829439,8.56393828 12.7692535,8.46202543 12.8847316,8.43539425 L12.9446368,8.42860835 L13.7963442,8.42860835 Z M11.7672818,8.42860835 C11.8908955,8.42860835 11.9948642,8.51311373 12.0220468,8.62678227 L12.0289747,8.6857906 L12.0289747,10.7428178 C12.0289747,10.8643008 11.9426652,10.9664774 11.827187,10.9931915 L11.7672818,11 L9.26169289,11 C9.13770344,11 9.03400317,10.9151781 9.00690492,10.8016904 L9,10.7428178 L9,8.6857906 C9,8.56393828 9.08598749,8.46202543 9.20164964,8.43539425 L9.26169289,8.42860835 L11.7672818,8.42860835 Z M17.8852847,5.21430418 C18.0088984,5.21430418 18.1128671,5.29880955 18.1400497,5.4124781 L18.1469776,5.47148642 L18.1469776,7.52851358 C18.1469776,7.6503659 18.0606681,7.75227875 17.9451899,7.77890992 L17.8852847,7.78569582 L16.9090869,7.78569582 C16.7854732,7.78569582 16.6815045,7.70119045 16.654322,7.5875219 L16.647394,7.52851358 L16.647394,5.47148642 C16.647394,5.3496341 16.7337036,5.24772125 16.8491817,5.22109008 L16.9090869,5.21430418 L17.8852847,5.21430418 Z M21.1557445,5.21430418 C21.279734,5.21430418 21.3834343,5.29880955 21.4105325,5.4124781 L21.4174374,5.47148642 L21.4174374,7.52851358 C21.4174374,7.6503659 21.3314499,7.75227875 21.2157878,7.77890992 L21.1557445,7.78569582 L19.0626397,7.78569582 C18.939026,7.78569582 18.8350573,7.70119045 18.8078747,7.5875219 L18.8009468,7.52851358 L18.8009468,5.47148642 C18.8009468,5.3496341 18.8872564,5.24772125 19.0027345,5.22109008 L19.0626397,5.21430418 L21.1557445,5.21430418 Z M15.7316442,2 C15.855258,2 15.9592266,2.08450537 15.9864092,2.19817392 L15.9933371,2.25718224 L15.9933371,4.3142094 C15.9933371,4.43606172 15.9070276,4.53797457 15.7915495,4.56460575 L15.7316442,4.57139165 L14.7554465,4.57139165 C14.631457,4.57139165 14.5277567,4.48688627 14.5006585,4.37321773 L14.4937536,4.3142094 L14.4937536,2.25718224 C14.4937536,2.13532992 14.5797411,2.03341708 14.6954032,2.0067859 L14.7554465,2 L15.7316442,2 Z"></path><path fill="#333333" d="M68.1263503,32.0940171 C70.2313688,32.0940171 71.8386891,31.6788767 72.9483112,30.8485958 C74.0579334,30.018315 74.6127444,28.8542939 74.6127444,27.3565324 C74.6127444,26.2983313 74.3271799,25.4151404 73.7560509,24.7069597 C73.1849218,23.998779 72.3527052,23.4981685 71.2594011,23.2051282 C72.0752997,22.8632479 72.6994621,22.3667074 73.1318884,21.7155067 C73.5643147,21.0643061 73.7805278,20.2910053 73.7805278,19.3956044 C73.7805278,17.995523 73.2420347,16.9129019 72.1650485,16.1477411 C71.0880624,15.3825804 69.5868089,15 67.6612881,15 L67.6612881,15 L60,15 L60,32.0940171 L68.1263503,32.0940171 Z M67.3920416,22.3015873 L63.1330507,22.3015873 L63.1330507,17.4420024 L67.3920416,17.4420024 C68.4200738,17.4420024 69.2033365,17.6495726 69.7418296,18.0647131 C70.2803227,18.4798535 70.5495693,19.0862841 70.5495693,19.8840049 C70.5495693,20.6817257 70.2803227,21.2840863 69.7418296,21.6910867 C69.2033365,22.0980871 68.4200738,22.3015873 67.3920416,22.3015873 L67.3920416,22.3015873 Z M68.0284425,29.6520147 L63.1330507,29.6520147 L63.1330507,24.6214896 L68.0284425,24.6214896 C70.2803227,24.6214896 71.4062628,25.4517705 71.4062628,27.1123321 C71.4062628,28.8054538 70.2803227,29.6520147 68.0284425,29.6520147 L68.0284425,29.6520147 Z M83.7181731,32.2649573 C85.0562469,32.2649573 86.2556178,31.980057 87.3162861,31.4102564 C88.3769543,30.8404558 89.2050914,30.046805 89.8006974,29.029304 C90.3963034,28.011803 90.6941064,26.8599919 90.6941064,25.5738706 C90.6941064,24.2877493 90.3963034,23.1400081 89.8006974,22.1306471 C89.2050914,21.1212861 88.3769543,20.3317053 87.3162861,19.7619048 C86.2556178,19.1921042 85.0562469,18.9072039 83.7181731,18.9072039 C82.3964173,18.9072039 81.2052053,19.1921042 80.1445371,19.7619048 C79.0838689,20.3317053 78.2557318,21.1212861 77.6601258,22.1306471 C77.0645198,23.1400081 76.7667168,24.2877493 76.7667168,25.5738706 C76.7667168,26.8599919 77.0645198,28.011803 77.6601258,29.029304 C78.2557318,30.046805 79.0838689,30.8404558 80.1445371,31.4102564 C81.2052053,31.980057 82.3964173,32.2649573 83.7181731,32.2649573 Z M83.7181731,29.6520147 C82.592233,29.6520147 81.6661881,29.2775743 80.9400383,28.5286935 C80.2138885,27.7798128 79.8508136,26.7948718 79.8508136,25.5738706 C79.8508136,24.3528694 80.2138885,23.3679284 80.9400383,22.6190476 C81.6661881,21.8701669 82.592233,21.4957265 83.7181731,21.4957265 C84.8441132,21.4957265 85.7742377,21.8701669 86.5085464,22.6190476 C87.2428552,23.3679284 87.6100096,24.3528694 87.6100096,25.5738706 C87.6100096,26.7948718 87.2428552,27.7798128 86.5085464,28.5286935 C85.7742377,29.2775743 84.8441132,29.6520147 83.7181731,29.6520147 Z M97.6210857,32.3137973 C98.8286157,32.3137973 99.9056019,32.1428571 100.852044,31.8009768 C101.798487,31.4590965 102.540954,30.982906 103.079448,30.3724054 C103.617941,29.7619048 103.887187,29.0577941 103.887187,28.2600733 C103.887187,27.5437525 103.662815,26.9291819 103.214071,26.4163614 C102.765327,25.9035409 102.133005,25.5331705 101.317107,25.3052503 C102.002461,25.02849 102.540954,24.6418396 102.932586,24.1452991 C103.324217,23.6487586 103.520033,23.0830281 103.520033,22.4481074 C103.520033,21.7480667 103.271184,21.1253561 102.773486,20.5799756 C102.275787,20.034595 101.586353,19.6113146 100.705183,19.3101343 C99.824012,19.008954 98.8286157,18.8583639 97.7189936,18.8583639 C95.9729705,18.8583639 94.2432654,19.2572243 92.5298783,20.0549451 L92.5298783,20.0549451 L93.313141,22.3015873 C94.7654405,21.6666667 96.1443092,21.3492063 97.449747,21.3492063 C98.3635535,21.3492063 99.0815443,21.4875865 99.6037194,21.7643468 C100.125895,22.041107 100.386982,22.4155474 100.386982,22.8876679 C100.386982,23.3597884 100.170769,23.7260887 99.7383427,23.986569 C99.3059164,24.2470492 98.7062309,24.3772894 97.9392862,24.3772894 L97.9392862,24.3772894 L95.6384521,24.3772894 L95.6384521,26.4285714 L98.1840558,26.4285714 C98.9999544,26.4285714 99.6322759,26.5669516 100.08102,26.8437118 C100.529764,27.1204721 100.754136,27.5111925 100.754136,28.015873 C100.754136,28.5693936 100.464492,29.004884 99.8852044,29.3223443 C99.3059164,29.6398046 98.5022563,29.7985348 97.474224,29.7985348 C96.6746433,29.7985348 95.8750627,29.7008547 95.075482,29.5054945 C94.2759014,29.3101343 93.5579106,29.033374 92.9215096,28.6752137 L92.9215096,28.6752137 L92.0403391,30.9462759 C92.8236018,31.3858364 93.6966133,31.7236467 94.6593737,31.959707 C95.6221341,32.1957672 96.6093714,32.3137973 97.6210857,32.3137973 Z M108.072747,35 L108.072747,32.0940171 L118.157254,32.0940171 L118.157254,35 L121.021058,35 L121.021058,29.5054945 L119.087379,29.5054945 L119.087379,19.0537241 L108.317517,19.0537241 L108.146178,23.5225885 C108.04827,25.4110704 107.848375,26.8722019 107.546493,27.9059829 C107.24461,28.9397639 106.677561,29.4729345 105.845344,29.5054945 L105.845344,29.5054945 L105.23342,29.5054945 L105.23342,35 L108.072747,35 Z M116.027759,29.5054945 L109.590319,29.5054945 C110.06354,29.049654 110.389899,28.3496133 110.569397,27.4053724 C110.748895,26.4611315 110.871279,25.2401302 110.936551,23.7423687 L110.936551,23.7423687 L111.009982,21.6422466 L116.027759,21.6422466 L116.027759,29.5054945 Z M130.420211,32.0940171 C132.149916,32.0940171 133.455353,31.7765568 134.336524,31.1416361 C135.217695,30.5067155 135.65828,29.6031746 135.65828,28.4310134 C135.65828,26.8355718 134.85054,25.7936508 133.235061,25.3052503 C133.871462,25.02849 134.36508,24.6459096 134.715917,24.1575092 C135.066753,23.6691087 135.242171,23.0911681 135.242171,22.4236874 C135.242171,21.3492063 134.793427,20.5189255 133.895939,19.9328449 C132.99845,19.3467643 131.750125,19.0537241 130.150964,19.0537241 L130.150964,19.0537241 L123.762478,19.0537241 L123.762478,32.0940171 L130.420211,32.0940171 Z M129.881717,24.4993895 L126.675236,24.4993895 L126.675236,21.2759463 L129.881717,21.2759463 C131.464561,21.2759463 132.255982,21.8050468 132.255982,22.8632479 C132.255982,23.954009 131.464561,24.4993895 129.881717,24.4993895 L129.881717,24.4993895 Z M130.175441,29.8717949 L126.675236,29.8717949 L126.675236,26.5262515 L130.273349,26.5262515 C131.105565,26.5262515 131.717489,26.6687017 132.109121,26.953602 C132.500752,27.2385022 132.696568,27.6658527 132.696568,28.2356532 C132.696568,29.3264143 131.856192,29.8717949 130.175441,29.8717949 L130.175441,29.8717949 Z M141.728566,32.0940171 L148.924791,23.4981685 L148.924791,32.0940171 L151.984411,32.0940171 L151.984411,19.0537241 L149.194038,19.0537241 L141.973335,27.6495726 L141.973335,19.0537241 L138.913715,19.0537241 L138.913715,32.0940171 L141.728566,32.0940171 Z M157.883358,32.0940171 L161.065363,26.8681319 L163.268289,26.8681319 L163.268289,32.0940171 L166.303432,32.0940171 L166.303432,26.8681319 L168.506359,26.8681319 L171.688363,32.0940171 L175.33543,32.0940171 L171.027485,25.3540904 L174.992753,19.0537241 L171.737317,19.0537241 L168.530835,24.3284493 L166.303432,24.3284493 L166.303432,19.0537241 L163.268289,19.0537241 L163.268289,24.3284493 L161.016409,24.3284493 L157.834404,19.0537241 L154.578969,19.0537241 L158.544236,25.3540904 L154.260768,32.0940171 L157.883358,32.0940171 Z M183.265965,32.2649573 C184.391905,32.2649573 185.403619,32.0858771 186.301108,31.7277167 C187.198596,31.3695564 187.941064,30.8404558 188.528511,30.1404151 L188.528511,30.1404151 L186.888555,28.2600733 C185.95843,29.2043142 184.775377,29.6764347 183.339396,29.6764347 C182.213455,29.6764347 181.271093,29.3956044 180.512307,28.8339438 C179.753521,28.2722833 179.284379,27.5111925 179.104882,26.5506716 L179.104882,26.5506716 L189.360727,26.5506716 C189.393363,26.1599512 189.409681,25.8587709 189.409681,25.6471306 C189.409681,24.3121693 189.128196,23.1359381 188.565226,22.1184371 C188.002256,21.1009361 187.218994,20.3113553 186.215438,19.7496947 C185.211883,19.1880342 184.073704,18.9072039 182.800903,18.9072039 C181.511783,18.9072039 180.353207,19.1921042 179.325174,19.7619048 C178.297142,20.3317053 177.493482,21.1253561 176.914194,22.1428571 C176.334906,23.1603582 176.045262,24.3040293 176.045262,25.5738706 C176.045262,26.8599919 176.343065,28.011803 176.938671,29.029304 C177.534277,30.046805 178.378732,30.8404558 179.472036,31.4102564 C180.56534,31.980057 181.829983,32.2649573 183.265965,32.2649573 Z M186.496923,24.5238095 L179.080405,24.5238095 C179.227267,23.5632886 179.639295,22.7940578 180.316491,22.2161172 C180.993687,21.6381766 181.821824,21.3492063 182.800903,21.3492063 C183.796299,21.3492063 184.628515,21.6422466 185.297552,22.2283272 C185.966589,22.8144078 186.36638,23.5795686 186.496923,24.5238095 L186.496923,24.5238095 Z M195.822645,32.0940171 L195.822645,26.9413919 L202.406947,26.9413919 L202.406947,32.0940171 L205.466566,32.0940171 L205.466566,19.0537241 L202.406947,19.0537241 L202.406947,24.3528694 L195.822645,24.3528694 L195.822645,19.0537241 L192.763025,19.0537241 L192.763025,32.0940171 L195.822645,32.0940171 Z M212.393546,32.0940171 L219.589772,23.4981685 L219.589772,32.0940171 L222.649391,32.0940171 L222.649391,19.0537241 L219.859018,19.0537241 L212.638315,27.6495726 L212.638315,19.0537241 L209.578695,19.0537241 L209.578695,32.0940171 L212.393546,32.0940171 Z M232.856283,32.2649573 C233.982223,32.2649573 234.993938,32.0858771 235.891426,31.7277167 C236.788915,31.3695564 237.531382,30.8404558 238.118829,30.1404151 L238.118829,30.1404151 L236.478873,28.2600733 C235.548749,29.2043142 234.365696,29.6764347 232.929714,29.6764347 C231.803774,29.6764347 230.861411,29.3956044 230.102625,28.8339438 C229.34384,28.2722833 228.874698,27.5111925 228.6952,26.5506716 L228.6952,26.5506716 L238.951046,26.5506716 C238.983682,26.1599512 239,25.8587709 239,25.6471306 C239,24.3121693 238.718515,23.1359381 238.155545,22.1184371 C237.592575,21.1009361 236.809312,20.3113553 235.805757,19.7496947 C234.802202,19.1880342 233.664023,18.9072039 232.391221,18.9072039 C231.102101,18.9072039 229.943525,19.1921042 228.915493,19.7619048 C227.887461,20.3317053 227.083801,21.1253561 226.504513,22.1428571 C225.925224,23.1603582 225.63558,24.3040293 225.63558,25.5738706 C225.63558,26.8599919 225.933383,28.011803 226.528989,29.029304 C227.124595,30.046805 227.969051,30.8404558 229.062355,31.4102564 C230.155659,31.980057 231.420302,32.2649573 232.856283,32.2649573 Z M236.087242,24.5238095 L228.670723,24.5238095 C228.817585,23.5632886 229.229614,22.7940578 229.90681,22.2161172 C230.584006,21.6381766 231.412143,21.3492063 232.391221,21.3492063 C233.386617,21.3492063 234.218834,21.6422466 234.887871,22.2283272 C235.556908,22.8144078 235.956698,23.5795686 236.087242,24.5238095 L236.087242,24.5238095 Z"></path></svg>