<svg width="23" height="30" viewBox="0 0 23 30" fill="#ffffff" xmlns="http://www.w3.org/2000/svg">
    <path d="M13.1172 18.7031C18.2905 18.7031 22.4688 14.5161 22.4688 9.35156C22.4688 4.19508 18.2737 0 13.1172 0H3.70313C3.21773 0 2.82422 0.393516 2.82422 0.878906V13.1797H0.878906C0.393516 13.1797 0 13.5732 0 14.0586V17.8242C0 18.3096 0.393516 18.7031 0.878906 18.7031H2.82422V20.711H0.878906C0.393516 20.711 0 21.1045 0 21.5899V25.3555C0 25.8409 0.393516 26.2344 0.878906 26.2344H2.82422V29.1211C2.82422 29.6065 3.21773 30 3.70313 30H7.46877C7.95416 30 8.34768 29.6065 8.34768 29.1211V26.2344H14.0586C14.544 26.2344 14.9375 25.8408 14.9375 25.3554V21.5898C14.9375 21.1044 14.544 20.7109 14.0586 20.7109H8.34762V18.7031H13.1172ZM8.34762 5.52346H13.1171C15.2279 5.52346 16.9453 7.24078 16.9453 9.35156C16.9453 11.4623 15.2279 13.1797 13.1171 13.1797H8.34762V5.52346Z"></path>
</svg>