<svg width="40" height="30" viewBox="0 0 40 30" fill="#ffffff" xmlns="http://www.w3.org/2000/svg" class="fill-base">
    <path d="M14.4724 28.0599C14.8769 28.0599 15.2063 27.7305 15.2063 27.3259C15.2063 26.9208 14.8769 26.5915 14.4724 26.5915C14.0669 26.5915 13.7375 26.9208 13.7375 27.3259C13.7375 27.7305 14.0669 28.0599 14.4724 28.0599Z"></path>
    <path d="M9.54309 27.9727C9.90009 27.9727 10.1908 27.6827 10.1908 27.3257C10.1908 26.9687 9.90014 26.6786 9.54309 26.6786C9.18673 26.6786 8.89659 26.9686 8.89659 27.3257C8.89654 27.6827 9.18668 27.9727 9.54309 27.9727Z"></path>
    <path d="M19.6108 27.9727C19.968 27.9727 20.2586 27.6827 20.2586 27.3257C20.2586 26.9687 19.968 26.6786 19.6108 26.6786C19.2544 26.6786 18.9644 26.9686 18.9644 27.3257C18.9643 27.6827 19.2544 27.9727 19.6108 27.9727Z"></path>
    <path d="M4.12458 27.9727C4.48158 27.9727 4.77167 27.6827 4.77167 27.3257C4.77167 26.9687 4.48158 26.6786 4.12458 26.6786C3.76812 26.6786 3.47808 26.9686 3.47808 27.3257C3.47808 27.6827 3.76817 27.9727 4.12458 27.9727Z"></path>
    <path d="M26.192 30V29.8229C27.4315 29.6675 28.3944 28.6069 28.3944 27.3259C28.3944 26.0445 27.4315 24.9838 26.192 24.8285V24.6517H2.20242V24.8285C0.962265 24.9838 0 26.0444 0 27.3259C0 28.6069 0.962265 29.6676 2.20242 29.8229V30H26.192ZM4.12458 26.0494C4.71927 26.0494 5.21574 26.4598 5.35708 27.0112H8.31104C8.45168 26.4598 8.9481 26.0494 9.54304 26.0494C10.1377 26.0494 10.6344 26.4598 10.7757 27.0112H13.1489C13.2915 26.4108 13.8292 25.9622 14.4724 25.9622C15.1152 25.9622 15.6522 26.4108 15.7956 27.0112H18.3788C18.5194 26.4598 19.016 26.0494 19.6108 26.0494C20.2056 26.0494 20.7023 26.4598 20.8434 27.0112H23.465C23.6061 26.4598 24.1028 26.0494 24.6975 26.0494C25.4012 26.0494 25.9733 26.6221 25.9733 27.3259C25.9733 28.0291 25.4012 28.6019 24.6975 28.6019C24.1028 28.6019 23.6061 28.1915 23.465 27.6404H20.8434C20.7024 28.1915 20.2056 28.6019 19.6108 28.6019C19.0161 28.6019 18.5195 28.1915 18.3789 27.6404H15.7956C15.6522 28.2406 15.1153 28.6891 14.4724 28.6891C13.8293 28.6891 13.2915 28.2406 13.149 27.6404H10.7757C10.6345 28.1915 10.1378 28.6019 9.54309 28.6019C8.94815 28.6019 8.45173 28.1915 8.31109 27.6404H5.35713C5.21579 28.1915 4.71932 28.6019 4.12463 28.6019C3.42089 28.6019 2.84892 28.0291 2.84892 27.3259C2.84892 26.622 3.42084 26.0494 4.12458 26.0494Z"></path>
    <path d="M24.6975 27.9727C25.054 27.9727 25.344 27.6827 25.344 27.3257C25.344 26.9687 25.054 26.6786 24.6975 26.6786C24.3405 26.6786 24.0499 26.9686 24.0499 27.3257C24.0499 27.6827 24.3405 27.9727 24.6975 27.9727Z"></path><path d="M24.0499 16.9106L21.9274 13.2126H15.2063V16.5961L11.4922 16.7535V15.8882L6.53693 15.8095V16.5961H4.77167V18.824H11.4922V19.7423H4.77167V22.621H24.0499V16.9106ZM22.7141 18.824H16.4473V14.3263H21.141L22.7141 16.5752V18.824Z"></path>
    <path d="M21.0623 8.73061L27.5121 3.85415V1.10109L19.6108 5.82036L16.4473 12.2701H21.0623V8.73061Z"></path>
    <path d="M38.6809 16.4388L29.6357 0L28.3944 1.10109V3.38213L36.4786 16.4388H38.6809Z"></path>
    <path d="M37.0292 17.9165C37.082 22.4921 32.7818 22.621 32.7818 22.621C41.5137 26.0505 38.6809 17.9165 38.6809 17.9165H37.0292Z"></path>
</svg>